<?xml version="1.0" encoding="UTF-8"?>
<!DOCTYPE svg PUBLIC "-//W3C//DTD SVG 1.1//EN" "http://www.w3.org/Graphics/SVG/1.1/DTD/svg11.dtd">
<svg xmlns="http://www.w3.org/2000/svg" version="1.1" width="1984px" height="402px" style="shape-rendering:geometricPrecision; text-rendering:geometricPrecision; image-rendering:optimizeQuality; fill-rule:evenodd; clip-rule:evenodd" xmlns:xlink="http://www.w3.org/1999/xlink">
<g><path style="opacity:1" fill="#fefffe" d="M 484.5,-0.5 C 502.167,-0.5 519.833,-0.5 537.5,-0.5C 537.5,104.167 537.5,208.833 537.5,313.5C 519.833,313.5 502.167,313.5 484.5,313.5C 484.5,208.833 484.5,104.167 484.5,-0.5 Z"/></g>
<g><path style="opacity:0.991" fill="#ee2836" d="M 1134.5,-0.5 C 1227.83,-0.5 1321.17,-0.5 1414.5,-0.5C 1414.5,40.8333 1414.5,82.1667 1414.5,123.5C 1413.18,123.67 1412.01,123.337 1411,122.5C 1403.08,106.599 1390.25,97.0988 1372.5,94C 1351.68,90.2674 1331.02,90.9341 1310.5,96C 1287.93,102.241 1273.76,116.741 1268,139.5C 1263.65,159.59 1261.81,179.923 1262.5,200.5C 1261.93,222.388 1263.76,244.055 1268,265.5C 1276.76,295.571 1296.93,311.737 1328.5,314C 1347.4,316.199 1366.07,314.532 1384.5,309C 1397.97,303.363 1407.64,293.863 1413.5,280.5C 1414.32,279.614 1415.32,279.281 1416.5,279.5C 1416.04,290.516 1415.37,301.516 1414.5,312.5C 1431.83,312.5 1449.17,312.5 1466.5,312.5C 1466.5,208.167 1466.5,103.833 1466.5,-0.5C 1633.5,-0.5 1800.5,-0.5 1967.5,-0.5C 1975.66,0.991106 1980.99,5.65777 1983.5,13.5C 1983.5,17.5 1983.5,21.5 1983.5,25.5C 1965.8,76.4287 1947.97,127.429 1930,178.5C 1929.12,162.09 1926.12,146.09 1921,130.5C 1912.72,111.227 1898.22,99.727 1877.5,96C 1846.16,90.0415 1814.83,90.0415 1783.5,96C 1754.78,102.72 1737.61,120.553 1732,149.5C 1728.07,177.745 1727.07,206.078 1729,234.5C 1729.3,255.404 1735.3,274.404 1747,291.5C 1760.19,304.241 1776.02,311.407 1794.5,313C 1824.52,315.636 1854.52,315.303 1884.5,312C 1876.54,334.893 1868.37,357.726 1860,380.5C 1852.8,391.848 1842.63,398.848 1829.5,401.5C 1772.83,401.5 1716.17,401.5 1659.5,401.5C 1682.46,389.65 1694.96,370.65 1697,344.5C 1698.48,261.188 1698.98,177.855 1698.5,94.5C 1681.5,94.5 1664.5,94.5 1647.5,94.5C 1648.04,105.509 1648.71,116.509 1649.5,127.5C 1648.32,127.719 1647.32,127.386 1646.5,126.5C 1638.21,109.006 1624.54,98.1724 1605.5,94C 1582.49,89.7829 1559.82,91.1162 1537.5,98C 1521.67,104.5 1510.5,115.667 1504,131.5C 1499.15,145.419 1496.48,159.753 1496,174.5C 1494.88,201.224 1495.54,227.891 1498,254.5C 1501.56,285.514 1518.39,304.681 1548.5,312C 1569.51,316.297 1590.51,315.963 1611.5,311C 1627.58,306.084 1639.58,296.251 1647.5,281.5C 1648.67,301.158 1648.83,320.825 1648,340.5C 1647.37,351.268 1642.54,359.435 1633.5,365C 1626.44,367.812 1619.11,369.479 1611.5,370C 1600.5,370.667 1589.5,370.667 1578.5,370C 1565.25,369.743 1557.09,363.243 1554,350.5C 1553.33,345.844 1552.83,341.177 1552.5,336.5C 1536.5,336.5 1520.5,336.5 1504.5,336.5C 1502.45,355.655 1506.95,372.989 1518,388.5C 1523.17,393.853 1529,398.186 1535.5,401.5C 1354.17,401.5 1172.83,401.5 991.5,401.5C 979.01,396.17 974.843,386.837 979,373.5C 996.136,323.758 1013.47,274.091 1031,224.5C 1031.94,239.393 1034.27,254.06 1038,268.5C 1046,291.824 1062.17,305.991 1086.5,311C 1120.45,316.25 1154.45,316.25 1188.5,311C 1214.11,305.387 1228.61,289.554 1232,263.5C 1233.05,256.872 1233.55,250.206 1233.5,243.5C 1216.17,243.5 1198.83,243.5 1181.5,243.5C 1182.82,262.336 1174.16,272.836 1155.5,275C 1141.83,275.667 1128.17,275.667 1114.5,275C 1096.09,273.59 1085.92,263.756 1084,245.5C 1082.88,234.527 1082.38,223.527 1082.5,212.5C 1132.83,212.5 1183.17,212.5 1233.5,212.5C 1233.56,198.148 1233.06,183.815 1232,169.5C 1231.26,152.192 1226.92,135.858 1219,120.5C 1206.78,104.799 1190.61,95.9658 1170.5,94C 1138.06,89.2621 1106.06,91.0954 1074.5,99.5C 1082.9,72.1374 1092.4,45.1374 1103,18.5C 1110.99,7.92376 1121.49,1.59043 1134.5,-0.5 Z"/></g>
<g><path style="opacity:1" fill="#fefffe" d="M -0.5,258.5 C -0.5,253.5 -0.5,248.5 -0.5,243.5C 17.1698,243.333 34.8365,243.5 52.5,244C 53.2498,249.798 54.0831,255.631 55,261.5C 58.3256,271.808 65.4923,277.308 76.5,278C 93.5034,279.889 110.503,279.889 127.5,278C 143.434,275.217 150.434,265.717 148.5,249.5C 150.551,236.421 145.217,228.254 132.5,225C 126.254,223.459 119.921,222.459 113.5,222C 93.8158,221.305 74.1491,220.305 54.5,219C 41.7849,218.155 29.7849,214.822 18.5,209C 11.6383,204.453 6.80501,198.287 4,190.5C 1.89904,183.486 0.399035,176.486 -0.5,169.5C -0.5,159.833 -0.5,150.167 -0.5,140.5C 2.30721,116.187 15.6405,101.02 39.5,95C 45.4363,93.6127 51.4363,92.6127 57.5,92C 78.8154,90.5559 100.149,90.2226 121.5,91C 137.911,91.0114 153.578,94.3447 168.5,101C 183.662,110.126 192.162,123.626 194,141.5C 194.499,145.486 194.666,149.486 194.5,153.5C 176.5,153.5 158.5,153.5 140.5,153.5C 142.124,137.238 134.79,128.738 118.5,128C 103.464,127.124 88.4637,127.457 73.5,129C 59.035,132.137 52.035,141.137 52.5,156C 51.6275,167.271 56.6275,174.271 67.5,177C 92.1119,179.389 116.779,181.056 141.5,182C 159.191,182.337 174.691,188.17 188,199.5C 196.608,210.65 201.274,223.317 202,237.5C 204.497,255.521 201.497,272.521 193,288.5C 184.629,299.277 173.796,306.443 160.5,310C 150.673,312.69 140.673,314.356 130.5,315C 107.167,315.667 83.8333,315.667 60.5,315C 48.6647,314.367 37.3313,311.7 26.5,307C 16.1561,301.654 8.98942,293.487 5,282.5C 2.56955,274.495 0.736219,266.495 -0.5,258.5 Z"/></g>
<g><path style="opacity:1" fill="#fefffe" d="M 319.5,90.5 C 340.604,89.9049 361.604,91.0715 382.5,94C 414.459,98.959 432.626,117.459 437,149.5C 441.65,185.499 441.65,221.499 437,257.5C 432.604,287.826 415.437,305.993 385.5,312C 378.225,313.435 370.892,314.435 363.5,315C 345.5,315.667 327.5,315.667 309.5,315C 291.135,314.432 274.135,309.432 258.5,300C 244.102,286.363 236.269,269.53 235,249.5C 231.667,218.833 231.667,188.167 235,157.5C 236.35,140.773 242.016,125.773 252,112.5C 263.143,102.181 276.309,96.014 291.5,94C 300.944,92.5001 310.277,91.3334 319.5,90.5 Z M 326.5,131.5 C 340.436,130.771 354.103,132.271 367.5,136C 377.243,140.759 382.743,148.593 384,159.5C 385.975,174.091 386.809,188.758 386.5,203.5C 386.809,218.242 385.975,232.909 384,247.5C 381.608,261.559 373.441,270.059 359.5,273C 342.767,275.253 326.1,274.919 309.5,272C 299.262,268.761 292.762,261.928 290,251.5C 287.148,235.802 285.982,219.968 286.5,204C 285.811,186.62 287.311,169.453 291,152.5C 294.664,142.837 301.497,136.67 311.5,134C 316.661,133.268 321.661,132.434 326.5,131.5 Z"/></g>
<g><path style="opacity:1" fill="#fefffe" d="M 662.5,90.5 C 680.855,90.2505 699.189,90.7505 717.5,92C 758.872,93.7055 780.705,115.206 783,156.5C 783.5,208.832 783.667,261.166 783.5,313.5C 765.833,313.5 748.167,313.5 730.5,313.5C 730.95,305.161 731.116,296.828 731,288.5C 723.528,303.504 711.361,312.004 694.5,314C 676.868,315.564 659.201,315.898 641.5,315C 620.562,314.946 603.729,306.779 591,290.5C 583.654,276.437 580.154,261.437 580.5,245.5C 580.461,231.053 583.628,217.387 590,204.5C 597.001,193.57 606.834,186.404 619.5,183C 645.009,177.574 670.675,176.574 696.5,180C 711.564,182.415 722.731,190.248 730,203.5C 730.74,186.813 730.407,170.146 729,153.5C 728.045,142.56 722.545,135.06 712.5,131C 696.312,127.236 679.979,126.57 663.5,129C 649.133,132.89 642.133,142.39 642.5,157.5C 624.846,158.5 607.179,158.833 589.5,158.5C 587.902,138.794 593.569,121.628 606.5,107C 613.663,101.418 621.663,97.4184 630.5,95C 641.205,92.6846 651.872,91.1846 662.5,90.5 Z M 669.5,214.5 C 682.915,214.163 696.248,214.996 709.5,217C 723.812,221.267 730.812,230.934 730.5,246C 730.368,264.795 721.035,275.461 702.5,278C 686.125,279.941 669.791,279.608 653.5,277C 644.105,275.272 638.272,269.772 636,260.5C 628.522,231.025 639.689,215.692 669.5,214.5 Z"/></g>
<g><path style="opacity:1" fill="#fefffe" d="M 932.5,90.5 C 947.858,89.2508 962.525,91.7508 976.5,98C 989.742,107.297 997.242,120.13 999,136.5C 1000.32,150.466 1000.82,164.466 1000.5,178.5C 983.833,178.5 967.167,178.5 950.5,178.5C 950.756,168.459 950.256,158.459 949,148.5C 945.214,136.422 936.881,130.756 924,131.5C 899.775,131.393 886.775,143.393 885,167.5C 884.5,216.166 884.333,264.832 884.5,313.5C 866.833,313.5 849.167,313.5 831.5,313.5C 831.5,240.167 831.5,166.833 831.5,93.5C 848.833,93.5 866.167,93.5 883.5,93.5C 882.955,103.168 882.788,112.834 883,122.5C 893.333,102.34 909.833,91.6731 932.5,90.5 Z"/></g>
<g><path style="opacity:0.971" fill="#ee2736" d="M 1120.5,130.5 C 1136,129.851 1151.33,131.018 1166.5,134C 1174.38,137.567 1178.88,143.734 1180,152.5C 1181.32,161.782 1181.82,171.116 1181.5,180.5C 1148.5,180.5 1115.5,180.5 1082.5,180.5C 1082.42,171.801 1082.92,163.135 1084,154.5C 1084.68,145.306 1089.18,138.806 1097.5,135C 1105.13,132.62 1112.8,131.12 1120.5,130.5 Z"/></g>
<g><path style="opacity:0.991" fill="#ee2736" d="M 1352.5,130.5 C 1361.54,130.335 1370.54,130.835 1379.5,132C 1397.13,134.294 1407.63,144.127 1411,161.5C 1411.91,165.795 1412.58,170.128 1413,174.5C 1413.67,194.167 1413.67,213.833 1413,233.5C 1413.3,246.714 1408.8,257.88 1399.5,267C 1394.34,270.499 1388.67,272.833 1382.5,274C 1371.21,275.522 1359.88,275.856 1348.5,275C 1330.95,273.163 1320.45,263.663 1317,246.5C 1316.09,242.205 1315.42,237.872 1315,233.5C 1314.33,213.833 1314.33,194.167 1315,174.5C 1315.31,164.326 1317.64,154.66 1322,145.5C 1326.15,139.004 1331.99,134.838 1339.5,133C 1343.96,132.126 1348.3,131.293 1352.5,130.5 Z"/></g>
<g><path style="opacity:0.991" fill="#ee2736" d="M 1585.5,130.5 C 1598.43,129.96 1611.1,131.46 1623.5,135C 1634.67,139.502 1641.5,147.669 1644,159.5C 1648.63,188.828 1648.63,218.161 1644,247.5C 1640.31,262.526 1630.81,271.36 1615.5,274C 1600,276.518 1584.66,275.851 1569.5,272C 1558.49,266.988 1551.99,258.488 1550,246.5C 1545.08,215.764 1545.41,185.097 1551,154.5C 1556.74,138.213 1568.24,130.213 1585.5,130.5 Z"/></g>
<g><path style="opacity:0.972" fill="#ee2736" d="M 1817.5,130.5 C 1830.19,130.309 1842.86,130.809 1855.5,132C 1867.55,133.714 1874.71,140.547 1877,152.5C 1878.28,161.788 1878.78,171.121 1878.5,180.5C 1845.5,180.5 1812.5,180.5 1779.5,180.5C 1779.36,171.797 1779.86,163.13 1781,154.5C 1781.67,145.311 1786.17,138.811 1794.5,135C 1802.13,132.62 1809.8,131.12 1817.5,130.5 Z"/></g>
<g><path style="opacity:0.991" fill="#ed2736" d="M 1779.5,212.5 C 1825.84,212.167 1872.17,212.5 1918.5,213.5C 1914.59,223.323 1911.25,233.323 1908.5,243.5C 1898.5,243.5 1888.5,243.5 1878.5,243.5C 1879.82,262.336 1871.16,272.836 1852.5,275C 1838.83,275.667 1825.17,275.667 1811.5,275C 1793.56,273.72 1783.39,264.22 1781,246.5C 1779.82,235.197 1779.32,223.864 1779.5,212.5 Z"/></g>
</svg>
